# xmcd CD database file
#
# Track frame offsets:
#	150
#	14158
#	43656
#	64091
#	107016
#	119445
#	135414
#	151700
#	165601
#	178910
#	192099
#	207470
#	227490
#	241434
#	256277
#	268142
#	296173
#	311382
#	326263
#	340859
#
# Disc length: 4707 seconds
#
# Revision: 0
# Processed by: cddbd v1.5.1PL2 Copyright (c) Steve Scherf et al.
# Submitted via: CDex 1.51
#
DISCID=22126114
DTITLE=THE GRATEST JAZZ - (1) Night And Day
DYEAR=2004
DGENRE=Jazz
TTITLE0=I've Grown Accustomed To Her Face
TTITLE1=A Wheel Within A Wheel
TTITLE2=One Note Samba
TTITLE3=Hot Piano
TTITLE4=Night And Day
TTITLE5=Tuxedo Junction
TTITLE6=These Foolish Things
TTITLE7=Perdido
TTITLE8=Ain't Misbehavin'
TTITLE9=Jersey Bounce
TTITLE10=Lover Man
TTITLE11=Moment's Notice
TTITLE12=Moment's Notice
TTITLE13=My Old Flame
TTITLE14=That Old Black Magic
TTITLE15=Blight Of The Fumble Bee
TTITLE16=Blow Top Blues
TTITLE17=Intermission Riff
TTITLE18=Detour Ahead
TTITLE19=Tin Tin Deo
EXTD=YEAR: 2004
EXTT0=
EXTT1=
EXTT2=
EXTT3=
EXTT4=
EXTT5=
EXTT6=
EXTT7=
EXTT8=
EXTT9=
EXTT10=
EXTT11=
EXTT12=
EXTT13=
EXTT14=
EXTT15=
EXTT16=
EXTT17=
EXTT18=
EXTT19=
PLAYORDER=
